<svg width="10px" height="12px" viewBox="0 0 10 12" version="1.1" xmlns="http://www.w3.org/2000/svg" xmlns:xlink="http://www.w3.org/1999/xlink">
    <g id="Page-1" stroke="none" stroke-width="1" fill="none" fill-rule="evenodd">
        <g id="Explore" transform="translate(-120.000000, -260.000000)" fill="#FF7D0D">
            <g id="tour-place-01" transform="translate(20.000000, 203.000000)">
                <g id="location" transform="translate(100.000000, 55.000000)">
                    <path d="M4.909091,2 C6.21106284,2 7.459709,2.51720624 8.38034211,3.43783933 C9.30097523,4.35847243 9.81818199,5.60711908 9.81818199,6.90909091 C9.81818199,9.45454545 8.18181833,11.8181818 4.909091,14 C1.63636367,11.8181818 0,9.45454545 0,6.90909091 C0,5.60711908 0.517206244,4.35847243 1.43783936,3.43783933 C2.35847248,2.51720624 3.60711915,2 4.909091,2 Z M4.9090687,5.27270508 C4.00533002,5.27270508 3.27270508,6.00533002 3.27270508,6.9090687 C3.27270508,7.81280739 4.00533002,8.54543233 4.9090687,8.54543233 C5.81280739,8.54543233 6.54543233,7.81280739 6.54543233,6.9090687 C6.54543233,6.00533002 5.81280739,5.27270508 4.9090687,5.27270508 Z" id="icon"></path>
                </g>
            </g>
        </g>
    </g>
</svg>