<svg width="24px" height="24px" viewBox="0 0 24 24" version="1.1" xmlns="http://www.w3.org/2000/svg" xmlns:xlink="http://www.w3.org/1999/xlink">
    <g id="Page-1" stroke="none" stroke-width="1" fill="none" fill-rule="evenodd">
        <g id="Profile" transform="translate(-333.000000, -42.000000)" fill="#000000">
            <g id="Menu-bar" transform="translate(12.000000, 37.000000)">
                <g id="settings" transform="translate(321.000000, 5.000000)">
                    <path d="M24,0 L24,24 L0,24 L0,0 L24,0 Z" id="Vector" opacity="0"></path>
                    <path d="M12,13.5 C11.1715729,13.5 10.5,12.8284271 10.5,12 C10.5,11.1715729 11.1715729,10.5 12,10.5 C12.8284271,10.5 13.5,11.1715729 13.5,12 C13.5,12.8284271 12.8284271,13.5 12,13.5 Z" id="Vector"></path>
                    <path d="M21.1000347,7.80000019 C21.0147369,7.50875518 20.8716548,7.23767236 20.6793232,7.00292158 C20.4869916,6.7681708 20.2493499,6.5745609 19.9805737,6.43364 C19.7117974,6.29271911 19.4173915,6.20737427 19.1149178,6.18269587 C18.812444,6.15801746 18.5080983,6.19451094 18.2200336,6.28999996 L17.8800344,6.4000001 C17.6136784,6.48804593 17.329984,6.51038487 17.0531301,6.46511316 C16.7762763,6.41984146 16.5144738,6.30830127 16.2900362,6.13999987 L16.1800356,6.05999994 C15.9610239,5.89237392 15.784471,5.67562376 15.6646166,5.42722988 C15.5447622,5.178836 15.4849608,4.90575153 15.4900351,4.63000011 L15.4900351,4.3499999 C15.4949006,3.72202486 15.2503304,3.11779121 14.8100357,2.67000008 C14.6006083,2.45845225 14.3514511,2.29036194 14.0768747,2.17538309 C13.8022984,2.06040424 13.5077124,2.00080219 13.2100353,2 L10.6600351,2 C10.0482112,2.00790627 9.46428266,2.25719213 9.0353837,2.69358277 C8.60648474,3.12997341 8.36734622,3.71813077 8.37003469,4.32999992 L8.37003469,4.57000017 C8.36907429,4.86027211 8.30298804,5.14662853 8.17664671,5.40796471 C8.05030538,5.66930088 7.86692963,5.89895461 7.64003467,6.07999992 L7.51003504,6.17999983 C7.25937766,6.36962137 6.96620256,6.49515762 6.65599108,6.54569769 C6.3457796,6.59623776 6.02791887,6.57025221 5.73003483,6.46999979 C5.45645001,6.37532512 5.16649997,6.33714564 4.87773275,6.35777187 C4.58896553,6.3783981 4.30738601,6.4574015 4.050035,6.59000015 C3.78208864,6.72298639 3.54437819,6.90969381 3.35169589,7.13850403 C3.1590136,7.36731425 3.01548268,7.63333082 2.93003493,7.92000008 L2.11003477,10.5200005 C1.91987698,11.1061977 1.96864326,11.7437444 2.24574383,12.2942009 C2.52284439,12.8446574 3.00590628,13.2635796 3.59003484,13.46 L3.75003493,13.46 C4.01949307,13.560977 4.26134089,13.7240754 4.45594263,13.9360523 C4.65054437,14.1480292 4.79241449,14.4029098 4.87003469,14.6800003 L4.93003464,14.8400002 C5.04151154,15.146131 5.07878951,15.4743367 5.03880739,15.7976704 C4.99882527,16.121004 4.88272329,16.4302452 4.70003462,16.7000008 C4.33025107,17.2035897 4.17427607,17.8328232 4.26603937,18.4508209 C4.35780267,19.0688187 4.68988085,19.6255836 5.19003487,20 L7.26003504,21.5699997 C7.65198713,21.8549727 8.12547016,22.0057863 8.61003447,22 C8.73972404,22.0127053 8.87034523,22.0127053 9.00003481,22 C9.30013776,21.9419107 9.58525771,21.8232821 9.83799505,21.6513519 C10.0907324,21.4794217 10.3057874,21.2577958 10.4700356,21 L10.7000351,20.6700001 C10.8613754,20.4385687 11.0748559,20.2483023 11.3232536,20.1145496 C11.5716514,19.980797 11.8480108,19.9073031 12.1300354,19.8999996 C12.4255925,19.8927224 12.7181756,19.9604425 12.9804783,20.0968399 C13.242781,20.2332373 13.4662523,20.4338661 13.6300354,20.6800003 L13.7500353,20.8500004 C13.9205369,21.1037436 14.1411732,21.3199002 14.3983593,21.4851627 C14.6555454,21.6504252 14.9438377,21.7612954 15.2454853,21.8109455 C15.5471329,21.8605956 15.8557505,21.8479745 16.1523371,21.7738609 C16.4489236,21.6997474 16.7272007,21.5657089 16.9700346,21.3799992 L19.0000343,19.8600006 C19.4800054,19.4872305 19.7991945,18.9449724 19.8921623,18.3444004 C19.9851301,17.7438284 19.844833,17.1304426 19.5000343,16.6299992 L19.2400341,16.25 C19.0836864,16.0084267 18.9813091,15.7359606 18.9398899,15.4512033 C18.8984707,15.1664461 18.9189851,14.8761041 19.0000343,14.6000004 C19.0826467,14.3044401 19.2359885,14.0334422 19.4468079,13.8104267 C19.6576272,13.5874112 19.9195811,13.4190863 20.2100334,13.3199997 L20.4100342,13.25 C20.9887444,13.049187 21.4667009,12.6312276 21.7428837,12.0844603 C22.0190665,11.537693 22.071834,10.9049613 21.8900337,10.3199997 L21.8900337,10.3199997 L21.1000347,7.80000019 Z M10.0555391,14.9101439 C9.47996712,14.5255589 9.03136283,13.9789331 8.76645613,13.3393917 C8.50154942,12.6998503 8.43223774,11.996117 8.56728601,11.3171835 C8.70233428,10.63825 9.03567749,10.0146102 9.52516127,9.52512646 C10.014645,9.03564268 10.6382853,8.70229948 11.3172188,8.56725121 C11.9961523,8.43220294 12.6998856,8.50151461 13.339427,8.76642132 C13.9789684,9.03132802 14.5255942,9.47993183 14.9101791,10.0555038 C15.2947641,10.6310759 15.5000353,11.3077654 15.5000353,12 C15.5000353,12.9282577 15.1312861,13.8184962 14.4749088,14.4748735 C13.8185315,15.1312509 12.928293,15.5 12.0000353,15.5 L12.0000353,15.5 C11.3078006,15.5 10.6311111,15.2947288 10.0555391,14.9101439 Z" id="Vector"></path>
                </g>
            </g>
        </g>
    </g>
</svg>